<svg version="1.1" id="Layer_1" xmlns="http://www.w3.org/2000/svg" xmlns:xlink="http://www.w3.org/1999/xlink" x="0px" y="0px"
	 width="100%" viewBox="0 0 512 512" enable-background="new 0 0 512 512" xml:space="preserve">
<path fill="#82AFFF" opacity="1.000000" stroke="none" 
	d="
M1.000000,201.000000 
	C1.000000,172.645767 1.000000,144.291550 1.281563,115.800827 
	C2.035726,115.039558 2.695740,114.483406 2.953330,113.779907 
	C8.412229,98.871056 22.610174,89.021996 38.018379,89.018692 
	C184.104507,88.987381 330.190643,88.997765 476.276794,89.024345 
	C478.227417,89.024704 480.223969,89.187553 482.121185,89.618011 
	C496.207367,92.814064 506.418701,100.563499 511.249969,114.603065 
	C511.352448,114.900848 512.395630,114.874916 513.000000,115.000000 
	C513.000000,143.354233 513.000000,171.708450 512.532166,200.531296 
	C341.709564,200.999939 171.354782,200.999969 1.000000,201.000000 
z"/>
<path fill="#82AFFF" opacity="1.000000" stroke="none" 
	d="
M513.000000,313.000000 
	C513.000000,341.354218 513.000000,369.708466 512.718262,398.199066 
	C511.964233,398.960205 511.295441,399.516052 511.048553,400.219879 
	C505.819458,415.125763 490.630035,425.002777 475.905487,425.002380 
	C329.841827,424.998444 183.778183,425.002289 37.714542,424.975464 
	C35.764862,424.975098 33.769810,424.807129 31.872864,424.377625 
	C17.784103,421.187714 7.576549,413.437775 2.749661,399.396759 
	C2.647362,399.099182 1.604230,399.125031 1.000000,399.000000 
	C1.000000,370.645782 1.000000,342.291534 1.467854,313.468353 
	C172.290466,312.999603 342.645233,312.999786 513.000000,313.000000 
z"/>
<path fill="#F5F5F5" opacity="1.000000" stroke="none" 
	d="
M513.000000,312.532166 
	C342.645233,312.999786 172.290466,312.999603 1.467854,312.999695 
	C1.000000,275.978577 1.000000,238.957138 1.000000,201.467850 
	C171.354782,200.999969 341.709564,200.999939 512.532166,200.999954 
	C513.000000,238.021439 513.000000,275.042877 513.000000,312.532166 
M268.341980,236.566254 
	C270.750214,230.234772 273.158417,223.903305 275.995483,216.444336 
	C274.278748,216.949768 272.093628,216.929550 271.508636,217.886978 
	C269.585480,221.034637 268.186371,224.512192 266.695862,227.911209 
	C265.650574,230.294876 264.784607,232.757172 263.057251,235.284042 
	C261.756470,235.156662 260.455688,235.029282 259.132477,233.982193 
	C259.128113,228.196655 259.241516,222.406693 259.025024,216.629105 
	C258.978943,215.398880 257.732391,214.213638 257.038879,213.007675 
	C256.319702,214.187729 255.022980,215.346512 254.978607,216.551422 
	C254.753647,222.659653 254.853806,228.779877 254.025772,235.003403 
	C252.942841,235.156097 251.859909,235.308792 250.701309,234.688751 
	C247.848495,228.392365 244.995682,222.095978 241.798523,215.039612 
	C240.906006,216.263519 239.228958,217.573669 239.428375,218.463028 
	C240.240356,222.083939 241.526550,225.613678 242.834534,229.103333 
	C243.850250,231.813187 245.157623,234.413712 245.921570,237.619812 
	C244.694199,238.137970 243.466827,238.656143 241.806061,238.598145 
	C237.852753,234.623062 233.846695,230.698578 229.967010,226.652893 
	C227.819138,224.413147 226.181061,224.236252 224.811005,227.382446 
	C229.598877,232.334869 234.386520,237.287048 239.197235,242.940720 
	C238.479919,244.087753 237.762619,245.234787 236.259567,246.248093 
	C234.183472,245.348358 232.128448,244.395554 230.026596,243.560684 
	C226.432251,242.133057 222.874802,240.523132 219.154144,239.561005 
	C218.127060,239.295410 216.577026,241.052109 215.600983,241.669586 
	C221.291290,244.580994 225.958801,247.043503 230.701645,249.351212 
	C232.159958,250.060776 233.824249,250.347000 235.406815,251.639679 
	C235.236328,252.708328 235.065826,253.776978 233.976929,254.871307 
	C228.026321,254.877640 222.072327,254.783386 216.128235,254.983566 
	C215.065826,255.019333 214.044464,256.274017 213.004150,256.965881 
	C214.021729,257.680267 215.020126,258.979126 216.060043,259.013245 
	C222.334839,259.219116 228.619125,259.135468 234.998978,259.935547 
	C235.073715,261.249176 235.148453,262.562775 234.560242,264.297333 
	C232.248947,265.091156 229.880722,265.751831 227.639862,266.710327 
	C224.373352,268.107513 221.041290,269.473450 218.071503,271.374878 
	C217.060486,272.022186 217.059753,274.247467 216.649002,275.583801 
	C222.785614,273.579163 227.846756,272.003571 232.844086,270.246521 
	C234.367233,269.710968 235.714706,268.675812 237.717438,268.208099 
	C238.203094,269.392181 238.688736,270.576263 238.598206,272.193848 
	C234.622314,276.146454 230.696762,280.151550 226.650696,284.030945 
	C224.411896,286.177521 224.230453,287.815765 227.377258,289.183075 
	C232.331284,284.393036 237.283478,279.604767 242.939301,274.782867 
	C244.090012,275.503723 245.240723,276.224609 246.252029,277.732605 
	C245.352478,279.808990 244.401199,281.864838 243.564896,283.966400 
	C242.134491,287.560883 240.517609,291.117157 239.555161,294.838501 
	C239.288818,295.868317 241.058426,297.424652 241.678391,298.400238 
	C244.591705,292.703094 247.055069,288.033630 249.361206,283.287750 
	C250.069855,281.829376 250.348419,280.162018 251.638763,278.578400 
	C252.710068,278.750153 253.781372,278.921906 254.867126,280.014252 
	C254.872192,285.966888 254.776489,291.922943 254.975845,297.869049 
	C255.011444,298.931183 256.268921,299.952301 256.962219,300.992371 
	C257.678864,299.976349 258.982361,298.979309 259.015930,297.941193 
	C259.219055,291.664124 259.131897,285.377686 259.929840,278.994263 
	C261.245697,278.919067 262.561523,278.843903 264.297729,279.433289 
	C265.066864,281.581482 265.733978,283.773224 266.628296,285.867981 
	C268.086212,289.282806 269.452637,292.780823 271.375458,295.927399 
	C271.989502,296.932220 274.244781,296.934113 275.584320,297.344421 
	C273.578003,291.205841 272.001831,286.145996 270.244568,281.149841 
	C269.708923,279.626862 268.674683,278.279236 268.210541,276.279053 
	C269.393829,275.794128 270.577087,275.309235 272.193939,275.400604 
	C276.146942,279.375854 280.152649,283.300537 284.032196,287.346252 
	C286.178680,289.584625 287.817322,289.766571 289.212555,286.562836 
	C284.425415,281.640411 279.623444,276.702759 274.783905,271.089417 
	C275.478210,270.007385 276.172516,268.925323 277.427917,268.344360 
	C283.760590,270.753876 290.093292,273.163422 297.555023,276.002533 
	C297.045044,274.284393 297.060394,272.101379 296.102600,271.519135 
	C292.953064,269.604462 289.473022,268.219238 286.076263,266.730255 
	C283.689240,265.683899 281.231079,264.799866 278.702423,263.059326 
	C278.833405,261.753906 278.964386,260.448517 280.015625,259.125641 
	C285.966522,259.120361 291.920807,259.215607 297.865234,259.016663 
	C298.928467,258.981079 299.950958,257.728485 300.992279,257.037842 
	C299.976196,256.322205 298.979340,255.020996 297.940887,254.986893 
	C291.665771,254.780807 285.381195,254.864502 278.989777,254.032028 
	C278.830902,252.942780 278.672028,251.853516 279.289276,250.691147 
	C285.646271,247.840714 292.003296,244.990280 299.454132,241.649384 
	C297.556854,240.765701 295.915436,239.279694 294.672974,239.560303 
	C291.207306,240.343033 287.886322,241.804733 284.548065,243.101044 
	C281.977753,244.099167 279.467865,245.252792 276.374176,245.921570 
	C275.857086,244.692596 275.339966,243.463623 275.398804,241.801514 
	C279.373993,237.848801 283.298401,233.843124 287.344452,229.964310 
	C289.583893,227.817398 289.765015,226.180084 286.618561,224.811783 
	C281.665344,229.599823 276.713013,234.387024 271.085968,239.206528 
	C270.005157,238.513702 268.924377,237.820877 268.341980,236.566254 
z"/>
<!-- <path fill="#000000" opacity="1.000000" stroke="none" 
	d="
M1.000000,399.468658 
	C1.604230,399.125031 2.647362,399.099182 2.749661,399.396759 
	C7.576549,413.437775 17.784103,421.187714 31.872864,424.377625 
	C33.769810,424.807129 35.764862,424.975098 37.714542,424.975464 
	C183.778183,425.002289 329.841827,424.998444 475.905487,425.002380 
	C490.630035,425.002777 505.819458,415.125763 511.048553,400.219879 
	C511.295441,399.516052 511.964233,398.960205 512.718262,398.667725 
	C513.000000,436.977509 513.000000,474.955048 513.000000,512.966309 
	C342.456787,512.966309 171.913574,512.966309 1.000000,512.966309 
	C1.000000,475.313263 1.000000,437.625275 1.000000,399.468658 
z"/>
<path fill="#000000" opacity="1.000000" stroke="none" 
	d="
M513.000000,114.531342 
	C512.395630,114.874916 511.352448,114.900848 511.249969,114.603065 
	C506.418701,100.563499 496.207367,92.814064 482.121185,89.618011 
	C480.223969,89.187553 478.227417,89.024704 476.276794,89.024345 
	C330.190643,88.997765 184.104507,88.987381 38.018379,89.018692 
	C22.610174,89.021996 8.412229,98.871056 2.953330,113.779907 
	C2.695740,114.483406 2.035726,115.039558 1.281563,115.332169 
	C1.000000,77.022461 1.000000,39.044922 1.000000,1.033693 
	C171.543304,1.033693 342.086639,1.033693 513.000000,1.033693 
	C513.000000,38.686752 513.000000,76.374718 513.000000,114.531342 
z"/> -->
<path fill="#FFE05B" opacity="1.000000" stroke="none" 
	d="
M246.391434,276.945465 
	C245.240723,276.224609 244.090012,275.503723 242.489258,274.487000 
	C241.084259,273.380859 240.129318,272.570587 239.174377,271.760345 
	C238.688736,270.576263 238.203094,269.392181 237.387299,267.713135 
	C236.445831,266.104279 235.834503,264.990326 235.223175,263.876404 
	C235.148453,262.562775 235.073715,261.249176 234.979706,259.112549 
	C234.938736,257.141571 234.917038,255.993591 234.895325,254.845627 
	C235.065826,253.776978 235.236328,252.708328 235.568970,250.990738 
	C236.169189,249.021805 236.607254,247.701813 237.045319,246.381805 
	C237.762619,245.234787 238.479919,244.087753 239.499115,242.491440 
	C240.613831,241.086212 241.426651,240.130264 242.239471,239.174316 
	C243.466827,238.656143 244.694199,238.137970 246.432159,237.303772 
	C248.220825,236.478973 249.498901,235.970215 250.776978,235.461487 
	C251.859909,235.308792 252.942841,235.156097 254.863464,234.980988 
	C256.852417,234.939667 258.003662,234.920776 259.154907,234.901886 
	C260.455688,235.029282 261.756470,235.156662 263.660828,235.486572 
	C265.457458,236.168762 266.650513,236.648407 267.843567,237.128067 
	C268.924377,237.820877 270.005157,238.513702 271.521820,239.503510 
	C272.912750,240.611862 273.867798,241.423248 274.822876,242.234650 
	C275.339966,243.463623 275.857086,244.692596 276.691650,246.431824 
	C277.510498,248.216125 278.011810,249.490204 278.513153,250.764267 
	C278.672028,251.853516 278.830902,252.942780 279.014618,254.869995 
	C279.058075,256.852997 279.076721,257.998047 279.095367,259.143097 
	C278.964386,260.448517 278.833405,261.753906 278.501984,263.664185 
	C277.823303,265.460449 277.345062,266.651855 276.866821,267.843292 
	C276.172516,268.925323 275.478210,270.007385 274.489502,271.524872 
	C273.383514,272.914978 272.571960,273.869659 271.760376,274.824310 
	C270.577087,275.309235 269.393829,275.794128 267.714417,276.608887 
	C266.104675,277.548737 264.991028,278.158752 263.877380,278.768738 
	C262.561523,278.843903 261.245697,278.919067 259.107605,279.015930 
	C257.141174,279.056244 255.996918,279.074951 254.852676,279.093628 
	C253.781372,278.921906 252.710068,278.750153 250.988480,278.418457 
	C249.022614,277.820831 247.707016,277.383148 246.391434,276.945465 
z"/>
<path fill="#F0964F" opacity="1.000000" stroke="none" 
	d="
M278.901215,250.727707 
	C278.011810,249.490204 277.510498,248.216125 276.970123,246.639679 
	C279.467865,245.252792 281.977753,244.099167 284.548065,243.101044 
	C287.886322,241.804733 291.207306,240.343033 294.672974,239.560303 
	C295.915436,239.279694 297.556854,240.765701 299.454132,241.649384 
	C292.003296,244.990280 285.646271,247.840714 278.901215,250.727707 
z"/>
<path fill="#F0964F" opacity="1.000000" stroke="none" 
	d="
M250.739136,235.075104 
	C249.498901,235.970215 248.220825,236.478973 246.639038,237.025269 
	C245.157623,234.413712 243.850250,231.813187 242.834534,229.103333 
	C241.526550,225.613678 240.240356,222.083939 239.428375,218.463028 
	C239.228958,217.573669 240.906006,216.263519 241.798523,215.039612 
	C244.995682,222.095978 247.848495,228.392365 250.739136,235.075104 
z"/>
<path fill="#F19C5A" opacity="1.000000" stroke="none" 
	d="
M275.110840,242.018082 
	C273.867798,241.423248 272.912750,240.611862 271.859192,239.487335 
	C276.713013,234.387024 281.665344,229.599823 286.618561,224.811783 
	C289.765015,226.180084 289.583893,227.817398 287.344452,229.964310 
	C283.298401,233.843124 279.373993,237.848801 275.110840,242.018082 
z"/>
<path fill="#F0964F" opacity="1.000000" stroke="none" 
	d="
M236.652435,246.314957 
	C236.607254,247.701813 236.169189,249.021805 235.562668,250.584442 
	C233.824249,250.347000 232.159958,250.060776 230.701645,249.351212 
	C225.958801,247.043503 221.291290,244.580994 215.600983,241.669586 
	C216.577026,241.052109 218.127060,239.295410 219.154144,239.561005 
	C222.874802,240.523132 226.432251,242.133057 230.026596,243.560684 
	C232.128448,244.395554 234.183472,245.348358 236.652435,246.314957 
z"/>
<path fill="#F19C5A" opacity="1.000000" stroke="none" 
	d="
M242.022766,238.886230 
	C241.426651,240.130264 240.613831,241.086212 239.487579,242.140686 
	C234.386520,237.287048 229.598877,232.334869 224.811005,227.382446 
	C226.181061,224.236252 227.819138,224.413147 229.967010,226.652893 
	C233.846695,230.698578 237.852753,234.623062 242.022766,238.886230 
z"/>
<path fill="#F19C5A" opacity="1.000000" stroke="none" 
	d="
M238.886292,271.977112 
	C240.129318,272.570587 241.084259,273.380859 242.137421,274.503784 
	C237.283478,279.604767 232.331284,284.393036 227.377258,289.183075 
	C224.230453,287.815765 224.411896,286.177521 226.650696,284.030945 
	C230.696762,280.151550 234.622314,276.146454 238.886292,271.977112 
z"/>
<path fill="#F19C5A" opacity="1.000000" stroke="none" 
	d="
M271.977173,275.112457 
	C272.571960,273.869659 273.383514,272.914978 274.508301,271.862732 
	C279.623444,276.702759 284.425415,281.640411 289.212555,286.562836 
	C287.817322,289.766571 286.178680,289.584625 284.032196,287.346252 
	C280.152649,283.300537 276.146942,279.375854 271.977173,275.112457 
z"/>
<path fill="#F0964F" opacity="1.000000" stroke="none" 
	d="
M246.321732,277.339050 
	C247.707016,277.383148 249.022614,277.820831 250.581055,278.424438 
	C250.348419,280.162018 250.069855,281.829376 249.361206,283.287750 
	C247.055069,288.033630 244.591705,292.703094 241.678391,298.400238 
	C241.058426,297.424652 239.288818,295.868317 239.555161,294.838501 
	C240.517609,291.117157 242.134491,287.560883 243.564896,283.966400 
	C244.401199,281.864838 245.352478,279.808990 246.321732,277.339050 
z"/>
<path fill="#F0964F" opacity="1.000000" stroke="none" 
	d="
M268.092773,236.847168 
	C266.650513,236.648407 265.457458,236.168762 264.051453,235.436737 
	C264.784607,232.757172 265.650574,230.294876 266.695862,227.911209 
	C268.186371,224.512192 269.585480,221.034637 271.508636,217.886978 
	C272.093628,216.929550 274.278748,216.949768 275.995483,216.444336 
	C273.158417,223.903305 270.750214,230.234772 268.092773,236.847168 
z"/>
<path fill="#F0964F" opacity="1.000000" stroke="none" 
	d="
M234.891708,264.086853 
	C235.834503,264.990326 236.445831,266.104279 237.099899,267.543823 
	C235.714706,268.675812 234.367233,269.710968 232.844086,270.246521 
	C227.846756,272.003571 222.785614,273.579163 216.649002,275.583801 
	C217.059753,274.247467 217.060486,272.022186 218.071503,271.374878 
	C221.041290,269.473450 224.373352,268.107513 227.639862,266.710327 
	C229.880722,265.751831 232.248947,265.091156 234.891708,264.086853 
z"/>
<path fill="#F0964F" opacity="1.000000" stroke="none" 
	d="
M264.087555,279.101013 
	C264.991028,278.158752 266.104675,277.548737 267.543518,276.895020 
	C268.674683,278.279236 269.708923,279.626862 270.244568,281.149841 
	C272.001831,286.145996 273.578003,291.205841 275.584320,297.344421 
	C274.244781,296.934113 271.989502,296.932220 271.375458,295.927399 
	C269.452637,292.780823 268.086212,289.282806 266.628296,285.867981 
	C265.733978,283.773224 265.066864,281.581482 264.087555,279.101013 
z"/>
<path fill="#F0964F" opacity="1.000000" stroke="none" 
	d="
M277.147369,268.093811 
	C277.345062,266.651855 277.823303,265.460449 278.553101,264.056183 
	C281.231079,264.799866 283.689240,265.683899 286.076263,266.730255 
	C289.473022,268.219238 292.953064,269.604462 296.102600,271.519135 
	C297.060394,272.101379 297.045044,274.284393 297.555023,276.002533 
	C290.093292,273.163422 283.760590,270.753876 277.147369,268.093811 
z"/>
<path fill="#F09146" opacity="1.000000" stroke="none" 
	d="
M279.555481,259.134369 
	C279.076721,257.998047 279.058075,256.852997 279.069611,255.279633 
	C285.381195,254.864502 291.665771,254.780807 297.940887,254.986893 
	C298.979340,255.020996 299.976196,256.322205 300.992279,257.037842 
	C299.950958,257.728485 298.928467,258.981079 297.865234,259.016663 
	C291.920807,259.215607 285.966522,259.120361 279.555481,259.134369 
z"/>
<path fill="#F09146" opacity="1.000000" stroke="none" 
	d="
M254.859894,279.553955 
	C255.996918,279.074951 257.141174,279.056244 258.713623,279.065979 
	C259.131897,285.377686 259.219055,291.664124 259.015930,297.941193 
	C258.982361,298.979309 257.678864,299.976349 256.962219,300.992371 
	C256.268921,299.952301 255.011444,298.931183 254.975845,297.869049 
	C254.776489,291.922943 254.872192,285.966888 254.859894,279.553955 
z"/>
<path fill="#F09146" opacity="1.000000" stroke="none" 
	d="
M234.436127,254.858459 
	C234.917038,255.993591 234.938736,257.141571 234.930328,258.719116 
	C228.619125,259.135468 222.334839,259.219116 216.060043,259.013245 
	C215.020126,258.979126 214.021729,257.680267 213.004150,256.965881 
	C214.044464,256.274017 215.065826,255.019333 216.128235,254.983566 
	C222.072327,254.783386 228.026321,254.877640 234.436127,254.858459 
z"/>
<path fill="#F09146" opacity="1.000000" stroke="none" 
	d="
M259.143677,234.442047 
	C258.003662,234.920776 256.852417,234.939667 255.270584,234.927216 
	C254.853806,228.779877 254.753647,222.659653 254.978607,216.551422 
	C255.022980,215.346512 256.319702,214.187729 257.038879,213.007675 
	C257.732391,214.213638 258.978943,215.398880 259.025024,216.629105 
	C259.241516,222.406693 259.128113,228.196655 259.143677,234.442047 
z"/>
</svg>