<svg version="1.1" id="Layer_1" xmlns="http://www.w3.org/2000/svg" xmlns:xlink="http://www.w3.org/1999/xlink" x="0px" y="0px"
	 width="100%" viewBox="0 0 512 512" enable-background="new 0 0 512 512" xml:space="preserve">
<!-- <path fill="#000000" opacity="1.000000" stroke="none" 
	d="
M1.000000,115.000000 
	C1.000000,77.022461 1.000000,39.044922 1.000000,1.033693 
	C171.543304,1.033693 342.086639,1.033693 513.000000,1.033693 
	C513.000000,38.686752 513.000000,76.374718 512.737854,114.826782 
	C511.928772,115.072327 511.381805,114.553787 510.811279,113.684067 
	C506.574799,108.102066 502.360596,102.872223 498.149323,97.640068 
	C494.042053,92.537163 487.564392,92.385033 481.930664,89.601578 
	C480.707245,89.140320 479.717804,88.987968 478.728394,88.987930 
	C398.150543,88.984596 317.572693,88.992371 236.994827,89.007202 
	C235.665451,89.007446 234.336090,89.104095 232.545227,89.080643 
	C173.878586,89.003967 115.673462,88.997124 57.468327,89.007370 
	C49.988300,89.008690 42.508286,89.098778 34.654240,89.230118 
	C19.221142,92.034615 8.113634,99.706589 2.620299,114.485039 
	C2.498677,114.812241 1.558396,114.835144 1.000000,115.000000 
z"/>
<path fill="#000000" opacity="1.000000" stroke="none" 
	d="
M513.000000,399.000000 
	C513.000000,436.977509 513.000000,474.955048 513.000000,512.966309 
	C342.456787,512.966309 171.913574,512.966309 1.000000,512.966309 
	C1.000000,475.313263 1.000000,437.625275 1.297583,399.164673 
	C2.080763,398.677368 2.566359,398.962708 3.015780,399.613098 
	C5.201370,409.496796 20.387411,424.132050 32.061012,424.398163 
	C33.445808,424.857727 34.602047,425.009094 35.758297,425.009155 
	C183.046722,425.017700 330.335144,425.018097 477.623566,424.971954 
	C479.137817,424.971497 480.651917,424.351379 482.561340,424.014771 
	C494.802979,422.287689 508.143280,410.781372 511.007996,399.621399 
	C511.787231,399.186401 512.393616,399.093170 513.000000,399.000000 
z"/> -->
<path fill="#43499C" opacity="1.000000" stroke="none" 
	d="
M1.000000,115.468658 
	C1.558396,114.835144 2.498677,114.812241 2.620299,114.485039 
	C8.113634,99.706589 19.221142,92.034615 34.966110,89.501007 
	C36.302521,89.795990 36.953056,89.995834 37.603531,89.995636 
	C102.782822,89.976242 167.962112,89.941719 233.423096,89.933945 
	C234.078903,90.001114 234.453018,90.042465 235.033554,90.372299 
	C236.562927,93.677223 238.599487,96.592285 239.045731,99.733292 
	C239.759354,104.756241 239.417389,109.929153 239.420609,115.493645 
	C239.387329,124.269096 239.455109,132.589569 239.408020,141.370346 
	C239.360962,150.161591 239.428802,158.492554 239.403091,167.301804 
	C239.362427,175.967087 239.415298,184.154053 239.379486,192.778107 
	C239.369690,201.553009 239.448608,209.890823 239.435272,218.672913 
	C239.400406,227.417709 239.457809,235.718262 239.408447,244.473419 
	C239.270615,249.513077 238.987503,254.113968 239.274994,258.678955 
	C239.602921,263.885864 237.690125,267.537842 232.574631,269.862366 
	C158.425095,269.936859 84.744484,269.934204 11.064039,270.045258 
	C6.241146,270.052521 3.379772,267.634247 1.000000,264.000000 
	C1.000000,214.645767 1.000000,165.291550 1.000000,115.468658 
M93.567200,140.952408 
	C96.940308,136.909592 99.181343,142.305222 102.578590,142.129745 
	C102.068695,139.887466 101.613037,137.883682 101.135765,135.784866 
	C102.763802,134.336960 104.385994,132.894257 106.008194,131.451538 
	C106.206741,130.827118 106.405296,130.202698 106.603844,129.578262 
	C99.778427,132.662506 98.120239,128.291992 96.143028,123.771530 
	C95.295387,129.595062 91.717979,131.078659 86.377968,131.084900 
	C91.441948,133.809708 92.307953,137.463196 89.558220,142.728424 
	C91.359184,141.997101 92.181221,141.663300 93.567200,140.952408 
M187.019272,142.103394 
	C188.524353,141.104431 190.029449,140.105453 191.477463,139.144379 
	C193.500671,140.323380 195.377747,141.417206 198.140976,143.027451 
	C197.302246,139.837067 196.770630,137.814941 196.250854,135.837799 
	C197.963882,134.314850 199.575546,132.882034 201.187210,131.449203 
	C195.424698,131.688736 192.904739,128.753998 191.492737,123.518082 
	C190.546143,129.404388 186.995590,131.184006 180.595795,130.343857 
	C183.597321,132.943954 185.188232,134.322098 186.425049,135.393494 
	C186.425049,137.951004 186.425049,140.140045 187.019272,142.103394 
M221.378418,125.676788 
	C220.936401,123.959770 220.494370,122.242752 220.087616,120.662758 
	C221.920776,119.111778 223.469254,117.801643 225.017746,116.491516 
	C225.202759,115.859200 225.387772,115.226875 225.572784,114.594559 
	C218.832184,117.532616 217.066284,113.289612 215.090195,108.750374 
	C214.350327,114.697945 210.532394,115.879509 205.371689,116.109497 
	C210.526566,118.765488 211.240631,122.502129 209.804764,127.402992 
	C211.730576,126.298645 213.656372,125.194298 214.618134,124.642776 
	C217.534714,125.377960 219.520020,125.878395 221.378418,125.676788 
M65.155235,115.297714 
	C64.796707,116.069298 63.943027,117.295876 64.163307,117.535606 
	C65.257118,118.725975 66.634026,119.656219 67.868904,120.644249 
	C67.357140,122.863533 66.893311,124.874947 66.182304,127.958229 
	C68.986671,126.316444 70.887619,125.203552 72.684715,124.151459 
	C74.666603,125.389854 76.404411,126.475739 79.121033,128.173233 
	C78.318344,124.853973 77.800087,122.710876 77.308884,120.679649 
	C79.104179,119.164368 80.660324,117.850937 82.216469,116.537506 
	C82.252495,116.115410 82.288521,115.693314 82.324547,115.271217 
	C76.666466,116.585617 73.955009,113.724548 72.856476,108.274727 
	C69.427490,114.999702 69.427490,114.999702 65.155235,115.297714 
M97.440948,217.341522 
	C96.849243,217.126617 96.257538,216.911713 95.665833,216.696808 
	C94.957649,221.665787 91.419075,222.941971 86.403183,223.082489 
	C91.613831,225.741135 92.241936,229.499268 90.853493,234.384720 
	C92.773064,233.280792 94.692635,232.176849 96.501389,231.136658 
	C98.467636,232.353683 100.169266,233.406937 103.023827,235.173813 
	C102.114082,231.679749 101.592415,229.676208 101.094681,227.764572 
	C102.853134,226.227295 104.423981,224.854034 106.315872,223.200119 
	C103.072739,221.469482 97.836197,223.746017 97.440948,217.341522 
M215.460831,201.201385 
	C213.554398,205.160034 211.452621,208.858475 205.248123,207.856476 
	C210.647400,210.713486 211.198212,214.498627 209.804947,219.372513 
	C211.735748,218.263657 213.666534,217.154800 215.510406,216.095871 
	C217.439911,217.305908 219.136475,218.369858 221.955505,220.137756 
	C221.070923,216.659088 220.557938,214.641708 220.071167,212.727478 
	C221.830978,211.191635 223.400024,209.822266 224.969070,208.452896 
	C219.998993,208.410034 216.885818,206.559601 215.460831,201.201385 
M168.778748,110.094986 
	C167.948959,110.493217 166.489151,110.776649 166.392258,111.308426 
	C165.791306,114.606705 163.888748,115.645836 160.753632,115.333267 
	C159.955017,115.253632 159.091309,115.826958 157.125290,116.471428 
	C163.158798,118.667404 163.436020,122.577606 161.258224,127.969574 
	C164.299957,126.236885 166.110214,125.205704 167.806427,124.239471 
	C169.792343,125.377846 171.551636,126.386299 173.310913,127.394760 
	C171.674606,122.371384 172.967361,118.833405 177.662781,116.070190 
	C173.685394,115.198166 169.242722,116.153961 168.778748,110.094986 
M52.782986,130.231827 
	C51.428406,128.223999 50.073826,126.216156 47.976482,123.107368 
	C47.916382,129.898270 44.006538,130.983612 38.680691,131.023346 
	C43.843338,133.640488 44.647625,137.470795 42.135567,143.041611 
	C45.409954,141.215195 47.229179,140.200439 48.903641,139.266449 
	C50.923038,140.432770 52.648781,141.429474 54.374519,142.426193 
	C52.411503,137.242386 54.412132,133.914566 59.750801,130.789200 
	C56.455132,130.525864 55.027973,130.411819 52.782986,130.231827 
M50.811615,232.313522 
	C51.985580,233.001343 53.159546,233.689163 54.333511,234.376984 
	C52.660835,229.339844 54.059090,225.835571 58.724651,222.821579 
	C52.814232,223.557938 50.040661,220.797379 48.545292,215.550583 
	C47.979366,222.013779 43.866909,222.817230 38.676678,223.006744 
	C43.930363,225.587967 44.551739,229.486725 42.671444,233.894913 
	C45.663960,233.079865 47.875816,232.477448 50.811615,232.313522 
M21.474461,126.385918 
	C22.708111,125.614670 23.941759,124.843422 25.060316,124.144135 
	C27.027229,125.333809 28.737764,126.368408 30.448299,127.403015 
	C28.401529,122.140022 30.735323,118.930504 34.708935,115.836479 
	C28.859762,116.672089 26.537817,113.467453 24.624783,108.569435 
	C24.449759,115.107544 20.012440,115.505089 14.305819,115.867020 
	C19.144943,118.814445 21.230103,121.791801 18.976494,126.148453 
	C19.596756,126.379761 20.217018,126.611076 21.474461,126.385918 
M190.893188,216.654221 
	C190.155838,221.663864 186.642548,222.972870 181.552780,223.022217 
	C186.420990,225.761826 187.924255,229.301895 186.163559,234.343140 
	C187.955139,233.286057 189.746704,232.228989 191.540756,231.170441 
	C193.482529,232.288406 195.369781,233.374954 198.120651,234.958725 
	C197.301712,231.825974 196.773666,229.805908 196.260269,227.841934 
	C197.938889,226.287628 199.523239,224.820618 201.107574,223.353607 
	C201.167480,222.882584 201.227386,222.411575 201.287308,221.940552 
	C194.933167,224.242554 193.557159,219.753860 190.893188,216.654221 
M121.934372,125.151489 
	C123.131912,125.859657 124.329460,126.567825 127.066643,128.186462 
	C123.956039,122.189117 125.491646,118.736877 130.221420,115.889702 
	C124.643265,116.318420 121.392609,114.144211 119.865005,108.440399 
	C119.744194,115.346382 115.072327,115.454079 110.264481,116.242180 
	C115.517303,118.770927 115.987106,122.626999 113.567741,127.399506 
	C116.779282,126.275215 118.989838,125.501350 121.934372,125.151489 
M166.907104,216.536316 
	C169.136337,217.380844 171.365570,218.225357 174.929306,219.575455 
	C170.936050,213.989288 173.919083,210.925613 177.440506,207.523895 
	C171.278137,208.972870 169.294083,205.304169 167.559280,200.466003 
	C167.041183,206.857224 162.750565,207.695541 157.766052,208.123550 
	C163.105011,210.657852 163.562027,214.487366 160.916840,220.232178 
	C163.805466,218.470657 165.043793,217.715500 166.907104,216.536316 
M138.910629,137.431259 
	C138.541870,138.911606 138.173111,140.391953 137.523392,143.000137 
	C140.449875,141.288818 142.247803,140.237442 143.968750,139.231094 
	C145.902817,140.339645 147.683044,141.360016 149.463287,142.380386 
	C147.592636,137.336807 149.217682,133.896317 153.842499,131.016861 
	C148.191177,131.421951 145.293320,128.998413 143.883316,123.732666 
	C142.918030,129.343979 139.324570,131.035294 134.233017,130.694122 
	C136.259918,133.202438 137.650650,134.923492 138.910629,137.431259 
M145.640076,232.067627 
	C146.911957,232.826706 148.183838,233.585785 149.455719,234.344864 
	C147.879074,229.235626 149.296051,225.871353 154.133240,222.587723 
	C147.524368,224.411331 145.729416,220.246689 143.666641,215.698288 
	C143.060135,221.691193 139.267242,222.959473 133.978546,223.057449 
	C139.188431,225.732742 139.906799,229.480560 137.432281,234.311752 
	C140.644608,233.183075 142.830383,232.415085 145.640076,232.067627 
M81.872681,208.171432 
	C77.683281,207.273270 73.120865,206.875092 72.442848,200.080170 
	C72.183861,207.168304 67.613914,207.602692 61.989803,207.587296 
	C64.633881,209.869934 66.225624,211.244095 67.798225,212.601730 
	C67.341957,214.778900 66.907066,216.854080 66.250374,219.987640 
	C69.100296,218.239655 70.869934,217.154251 72.532089,216.134781 
	C74.591690,217.284607 76.440765,218.316910 79.097809,219.800278 
	C78.277199,216.537216 77.771523,214.526459 77.301010,212.655518 
	C78.958313,211.253250 80.342598,210.081970 81.872681,208.171432 
M190.536713,186.553986 
	C190.168503,191.780121 186.255402,192.187881 181.776596,192.508926 
	C186.653061,195.217194 187.550659,198.995026 186.155548,203.824951 
	C187.948318,202.724075 189.741089,201.623215 191.502548,200.541565 
	C193.516693,201.674316 195.401581,202.734375 197.286469,203.794434 
	C195.328552,198.708649 196.930649,195.277390 201.286301,192.278732 
	C195.836029,192.986588 193.224838,190.514191 192.098358,186.014572 
	C192.073486,185.915253 191.343048,185.992554 190.536713,186.553986 
M22.824017,205.572845 
	C20.532017,206.450089 18.240015,207.327316 15.098179,208.529816 
	C19.906137,210.809952 21.256588,214.346298 19.531796,219.329956 
	C21.452261,218.235321 23.372726,217.140686 25.113035,216.148727 
	C27.089722,217.325287 28.783834,218.333649 29.449003,218.729568 
	C30.851015,214.761108 32.059776,211.339661 33.438995,207.435730 
	C28.438030,209.525696 26.817650,205.124222 24.972658,200.154541 
	C24.019342,202.430893 23.524008,203.613663 22.824017,205.572845 
M125.971535,216.695724 
	C122.759369,212.062637 128.423706,210.948303 130.502533,206.434998 
	C123.530632,209.720764 122.051331,205.031281 119.786842,200.799973 
	C119.236420,206.742874 115.424896,207.939667 110.154327,208.030029 
	C115.528061,210.730072 116.022911,214.547760 114.750122,219.370926 
	C116.547249,218.299957 118.344376,217.229004 120.276665,216.077499 
	C121.650513,216.983780 122.967026,217.982498 124.421844,218.701233 
	C124.710258,218.843735 125.529518,217.911789 125.971535,216.695724 
M28.892216,145.958893 
	C27.563890,143.961288 26.235565,141.963699 24.065174,138.699753 
	C24.268393,145.949554 19.927080,146.345520 15.001790,146.848816 
	C20.463125,149.300537 20.531778,153.385101 19.133976,158.278732 
	C23.289978,154.111465 27.018194,154.883743 31.335217,159.193253 
	C30.723528,155.474991 29.536596,153.012527 30.275215,151.475174 
	C31.089371,149.780579 33.671539,148.935410 35.483543,147.720230 
	C35.020416,147.147537 34.557289,146.574844 34.094166,146.002151 
	C32.626221,146.002151 31.158279,146.002151 28.892216,145.958893 
M211.170273,145.988358 
	C209.473511,146.062454 207.776749,146.136566 206.079987,146.210678 
	C205.736420,146.564392 205.392853,146.918121 205.049286,147.271835 
	C210.874634,149.384583 211.093613,153.361572 209.282196,158.478699 
	C213.514496,153.869461 217.406830,155.199677 222.108994,159.257492 
	C221.076736,155.376129 220.540283,153.359070 220.042206,151.486237 
	C221.870117,149.814163 223.455032,148.364380 225.039948,146.914597 
	C225.080429,146.414368 225.120911,145.914139 225.161392,145.413925 
	C218.788239,148.201859 217.135223,144.032883 215.486740,139.282776 
	C214.052490,141.967621 213.011002,143.917236 211.170273,145.988358 
M102.478241,171.565659 
	C101.997673,169.841812 101.517097,168.117981 101.071327,166.518982 
	C102.884956,164.870056 104.480057,163.419815 106.075157,161.969574 
	C100.290817,162.502792 97.709251,159.693466 96.271233,154.293762 
	C95.351654,160.245880 91.706688,161.818649 86.307159,161.819977 
	C92.210487,164.419937 91.888496,168.459290 90.152260,173.489822 
	C94.351578,169.382477 98.087242,170.110413 101.840553,172.841492 
	C101.903198,172.887070 102.305008,172.466553 102.478241,171.565659 
M149.612137,169.853104 
	C146.635834,165.331497 152.793594,164.627686 153.379623,161.413635 
	C151.047729,161.094620 148.535904,161.423721 147.017395,160.349136 
	C145.573761,159.327560 145.168457,156.838684 144.306595,154.994965 
	C142.965149,160.365921 139.244507,161.801270 133.934311,161.721313 
	C139.194122,164.471985 139.970444,168.187393 137.352951,173.109909 
	C144.331757,170.354309 144.331757,170.354309 149.860977,173.004776 
	C149.860977,172.087112 149.860977,171.343567 149.612137,169.853104 
M221.228226,247.849503 
	C220.837067,246.288177 220.445923,244.726868 220.093430,243.319870 
	C221.912598,241.734238 223.457535,240.387650 225.002457,239.041061 
	C225.159088,238.472305 225.315735,237.903534 225.472382,237.334763 
	C218.953140,240.137650 216.976562,236.233276 215.188614,231.482147 
	C214.212250,237.202957 210.759995,238.771805 205.403870,238.744690 
	C210.686462,241.416107 211.233261,245.289413 209.157516,250.247269 
	C213.164520,247.339554 216.577850,245.833023 220.083878,249.705444 
	C220.091400,249.713760 220.968857,248.934448 221.228226,247.849503 
M26.078487,247.277985 
	C27.513399,248.249512 28.948313,249.221039 30.383224,250.192566 
	C30.844925,250.132248 31.306625,250.071945 31.768326,250.011642 
	C28.267326,244.831375 30.895720,241.538223 34.874626,238.304337 
	C28.992128,239.445496 26.505701,236.504211 24.654629,231.217514 
	C24.595064,238.114822 19.919424,238.226410 15.097613,238.829025 
	C20.172512,241.446503 21.028749,245.140152 18.059826,250.619858 
	C21.401321,248.964981 23.390272,247.979950 26.078487,247.277985 
M68.212715,145.998749 
	C66.533485,146.083420 64.854256,146.168091 62.070522,146.308441 
	C64.727989,148.670425 66.392044,150.149445 67.938637,151.524063 
	C67.316521,153.793427 66.786636,155.726379 66.256744,157.659317 
	C66.522774,158.006973 66.788803,158.354614 67.054832,158.702271 
	C70.763062,153.930481 74.649803,155.196671 78.957344,158.138092 
	C75.690201,152.717773 78.928856,149.596756 82.328659,146.090286 
	C76.023636,147.961060 74.230217,143.994675 72.883766,139.167450 
	C71.229614,142.066711 70.124580,144.003525 68.212715,145.998749 
M166.301666,141.944214 
	C166.252075,147.699127 160.985947,145.165543 157.048111,147.177216 
	C163.266708,149.218124 163.206238,153.366104 161.381210,158.375397 
	C164.379471,156.900360 166.266800,155.238998 168.128769,155.266983 
	C169.904053,155.293640 171.652893,157.081696 174.059113,158.467270 
	C173.518234,155.561539 172.398743,153.274139 172.957138,151.521255 
	C173.540237,149.690842 175.738754,148.375061 178.060471,145.977982 
	C172.675888,146.504059 169.112717,145.942719 168.735947,140.804199 
	C168.037323,140.950470 167.338699,141.096725 166.301666,141.944214 
M66.593132,238.009155 
	C65.445717,238.168259 64.298302,238.327377 62.286476,238.606354 
	C64.705635,240.620407 66.326508,241.969849 67.937660,243.311203 
	C67.370430,245.524643 66.856461,247.530258 66.342491,249.535889 
	C70.657967,246.543732 74.542297,246.405273 78.950562,250.438385 
	C75.962807,244.991547 78.057083,241.566818 83.440605,238.516724 
	C79.693680,238.091827 77.156784,238.508041 75.700195,237.444580 
	C74.189011,236.341278 73.723831,233.805283 73.014595,232.337540 
	C70.935417,234.432434 69.166687,236.214523 66.593132,238.009155 
M115.261688,237.987183 
	C113.866875,238.100891 112.472061,238.214600 111.077248,238.328308 
	C115.510559,241.407898 115.874977,245.370010 114.156769,250.297928 
	C118.330406,246.326187 122.070557,246.640488 126.417267,250.136780 
	C123.110802,244.610062 126.412956,241.528259 129.979431,238.150803 
	C123.813164,239.830475 121.861847,236.042557 120.403961,231.718506 
	C118.733917,234.133179 117.414276,236.041214 115.261688,237.987183 
M214.885773,170.857437 
	C213.818970,175.448135 211.017807,177.879013 205.196838,177.561111 
	C211.974106,179.951492 210.138214,184.467896 209.406693,189.488358 
	C213.363815,183.997391 217.278290,186.052795 221.727341,188.840179 
	C218.648682,183.507828 221.047577,180.182144 225.338089,176.969345 
	C218.780731,178.729156 217.245697,174.500549 214.885773,170.857437 
M73.118629,170.905640 
	C70.081039,173.393051 69.511269,179.561096 62.571941,177.019653 
	C67.556038,180.177612 68.726204,183.868607 67.040619,188.807083 
	C68.942238,187.676254 70.843857,186.545410 72.575783,185.515488 
	C74.697662,186.743256 76.475044,187.771698 78.252426,188.800125 
	C76.304237,183.768234 77.976830,180.208633 82.328964,177.225464 
	C77.314224,177.473053 74.054207,176.398895 73.118629,170.905640 
M103.550156,194.997498 
	C104.337738,194.256424 105.125328,193.515350 105.912910,192.774292 
	C100.395607,193.277710 97.896774,190.131699 96.200523,185.245071 
	C95.274673,190.951218 91.740784,192.491776 86.665840,192.599197 
	C92.109512,195.225159 91.756523,199.280045 90.255363,204.164215 
	C94.407501,200.236649 98.288231,200.208649 101.467552,203.741394 
	C102.024071,200.640396 102.490692,198.040344 103.550156,194.997498 
M54.923973,172.144379 
	C52.645206,167.765091 54.508709,164.534256 58.397072,161.499603 
	C52.739479,162.355591 50.244041,159.433151 48.595184,154.393753 
	C47.893829,160.502274 43.969551,161.723770 38.679943,161.775314 
	C44.183346,164.387527 44.666981,168.236954 42.806995,173.526917 
	C47.050934,168.526154 50.813263,170.963486 54.923973,172.144379 
M117.154968,156.734528 
	C120.545372,152.621155 122.865204,157.519302 126.710640,157.999939 
	C123.799805,152.999115 125.571777,149.476151 130.214294,146.386612 
	C124.259689,147.443420 121.592720,144.553268 120.042969,139.466949 
	C119.062485,145.188675 115.665459,146.810699 110.468506,146.691086 
	C115.250641,149.534409 116.173317,153.182663 113.383141,158.387665 
	C115.133331,157.682220 115.820015,157.405441 117.154968,156.734528 
M173.639297,247.571121 
	C170.485840,243.098526 175.518738,241.556091 177.661591,238.015839 
	C171.893707,239.155914 169.119843,236.675598 167.682846,231.382233 
	C166.658020,237.101089 163.234192,238.903137 157.516296,238.719986 
	C163.871994,240.973572 163.017700,245.396347 161.877579,250.170654 
	C165.807541,246.836472 169.243988,246.296021 172.660019,249.801361 
	C173.061493,249.309479 173.462967,248.817612 173.639297,247.571121 
M196.592361,161.022095 
	C194.809052,159.096451 193.025726,157.170807 190.858505,154.830627 
	C190.502060,160.367172 186.921143,161.779037 180.915329,161.158554 
	C183.648163,163.590302 185.299973,165.060120 186.864517,166.452301 
	C186.313568,168.678986 185.817612,170.683426 185.321655,172.687881 
	C185.488907,173.301910 185.656143,173.915955 185.823395,174.529984 
	C189.627396,168.317505 193.523285,170.206451 198.153793,174.356155 
	C197.251205,170.452835 196.752853,168.297638 196.311996,166.391113 
	C198.139816,164.798157 199.664505,163.469360 202.067276,161.375320 
	C199.607574,161.201233 198.504318,161.123154 196.592361,161.022095 
M126.118973,187.866180 
	C123.971024,183.342545 126.064644,180.078003 130.144806,176.799652 
	C123.484863,179.152451 122.145073,174.445374 119.736839,169.127808 
	C118.938454,175.692719 115.748917,177.657898 110.179054,177.661942 
	C116.792274,179.973083 114.929268,184.493439 114.230980,189.234802 
	C118.167213,184.714172 121.946083,185.993286 126.118973,187.866180 
M162.425415,181.322952 
	C162.288818,183.682465 162.152237,186.041962 161.936661,189.766129 
	C165.967102,184.534409 169.834671,185.896790 174.122620,188.858704 
	C171.421494,183.671951 172.987396,180.190384 177.645752,177.072510 
	C171.242706,178.663437 169.454010,174.655563 167.443970,169.976898 
	C166.919693,176.321640 163.128754,177.481079 157.133011,176.905243 
	C159.392609,178.817001 160.606934,179.844376 162.425415,181.322952 
M144.383163,200.766266 
	C146.112534,201.768616 147.841904,202.770950 149.571274,203.773300 
	C147.301605,198.622620 149.520615,195.314392 153.729095,192.055298 
	C147.199158,193.814713 145.784485,189.365356 143.368134,184.802933 
	C143.817963,192.051468 138.782318,191.890854 133.987808,192.769608 
	C139.907974,195.066254 139.401245,199.236847 137.312820,204.489914 
	C140.229645,202.756256 141.920227,201.751450 144.383163,200.766266 
M50.670074,201.503769 
	C51.925243,202.295212 53.180416,203.086655 54.435585,203.878098 
	C52.374966,198.668915 54.092049,195.232910 58.642967,192.102280 
	C52.292217,193.642838 50.473152,189.676025 48.548489,185.103348 
	C47.830418,191.200912 44.154675,192.528870 38.466545,192.595337 
	C45.228317,194.636536 43.825451,199.258102 42.698196,203.401810 
	C45.551224,202.504395 47.782806,201.802444 50.670074,201.503769 
M30.705196,176.803558 
	C28.657053,174.929047 26.608910,173.054550 24.393169,171.026657 
	C23.577991,175.085510 21.206673,178.137436 17.004250,177.210754 
	C18.112886,180.870178 19.212521,184.499878 20.330097,188.188812 
	C23.059963,184.850037 26.935114,185.572556 31.358341,188.826538 
	C28.156330,183.488937 30.767698,180.292404 35.432217,177.247177 
	C33.140232,176.988846 32.335476,176.898148 30.705196,176.803558 
z"/>
<path fill="#F5F3F3" opacity="1.000000" stroke="none" 
	d="
M1.000000,264.468658 
	C3.379772,267.634247 6.241146,270.052521 11.064039,270.045258 
	C84.744484,269.934204 158.425095,269.936859 233.036407,269.918152 
	C236.462769,269.937195 238.958389,269.962891 241.454010,269.963287 
	C331.969330,269.976959 422.484680,269.988312 513.000000,270.000000 
	C513.000000,278.354218 513.000000,286.708466 512.536011,295.458099 
	C342.543335,295.842041 173.014648,295.830322 3.485962,295.826630 
	C2.657310,295.826630 1.828655,295.939728 1.000001,296.000000 
	C1.000000,285.645782 1.000000,275.291534 1.000000,264.468658 
z"/>
<path fill="#F5F4F4" opacity="1.000000" stroke="none" 
	d="
M513.000000,398.531311 
	C512.393616,399.093170 511.787231,399.186401 510.643250,399.427368 
	C508.161072,399.373901 506.216461,398.996796 504.271820,398.996460 
	C339.190582,398.969360 174.109329,398.970428 9.028092,398.982880 
	C7.036037,398.983032 5.043995,399.155823 3.051951,399.248047 
	C2.566359,398.962708 2.080763,398.677368 1.297583,398.696045 
	C1.000000,390.645782 1.000000,382.291534 1.467927,373.497375 
	C171.292023,373.061768 340.648193,373.066162 510.004364,373.067505 
	C511.002899,373.067505 512.001465,373.023499 513.000000,373.000000 
	C513.000000,381.354218 513.000000,389.708466 513.000000,398.531311 
z"/>
<path fill="#FF4E58" opacity="1.000000" stroke="none" 
	d="
M1.000001,296.468689 
	C1.828655,295.939728 2.657310,295.826630 3.485962,295.826630 
	C173.014648,295.830322 342.543335,295.842041 512.536011,295.926758 
	C513.000000,304.354218 513.000000,312.708466 512.548584,321.390869 
	C511.265228,321.692322 510.433258,321.642212 509.601318,321.642181 
	C341.551453,321.638489 173.501617,321.637360 5.451766,321.652954 
	C3.967834,321.653107 2.483922,321.879333 1.000000,322.000000 
	C1.000000,313.645782 1.000000,305.291534 1.000001,296.468689 
z"/>
<path fill="#FF4D57" opacity="1.000000" stroke="none" 
	d="
M513.000000,372.531372 
	C512.001465,373.023499 511.002899,373.067505 510.004364,373.067505 
	C340.648193,373.066162 171.292023,373.061768 1.467927,373.028748 
	C1.000000,364.645782 1.000000,356.291534 1.463259,347.547089 
	C2.758960,347.170135 3.591403,347.195007 4.423846,347.195038 
	C172.455032,347.196869 340.486237,347.197418 508.517426,347.188904 
	C510.011627,347.188812 511.505798,347.065704 513.000000,347.000000 
	C513.000000,355.354218 513.000000,363.708466 513.000000,372.531372 
z"/>
<path fill="#F5F5F5" opacity="1.000000" stroke="none" 
	d="
M513.000000,346.531372 
	C511.505798,347.065704 510.011627,347.188812 508.517426,347.188904 
	C340.486237,347.197418 172.455032,347.196869 4.423846,347.195038 
	C3.591403,347.195007 2.758960,347.170135 1.463259,347.078430 
	C1.000000,338.979095 1.000000,330.958191 1.000000,322.468628 
	C2.483922,321.879333 3.967834,321.653107 5.451766,321.652954 
	C173.501617,321.637360 341.551453,321.638489 509.601318,321.642181 
	C510.433258,321.642212 511.265228,321.692322 512.548584,321.859497 
	C513.000000,330.020905 513.000000,338.041809 513.000000,346.531372 
z"/>
<path fill="#FF4C56" opacity="1.000000" stroke="none" 
	d="
M513.000000,269.531342 
	C422.484680,269.988312 331.969330,269.976959 241.454010,269.963287 
	C238.958389,269.962891 236.462769,269.937195 233.505371,269.867493 
	C237.690125,267.537842 239.602921,263.885864 239.274994,258.678955 
	C238.987503,254.113968 239.270615,249.513077 239.837204,244.473389 
	C331.248474,244.012512 422.124237,244.006256 513.000000,244.000000 
	C513.000000,252.354233 513.000000,260.708466 513.000000,269.531342 
z"/>
<path fill="#F5F4F4" opacity="1.000000" stroke="none" 
	d="
M239.522888,140.910049 
	C239.455109,132.589569 239.387329,124.269096 239.849304,115.495590 
	C328.453369,115.037766 416.527679,115.039757 504.601990,114.986649 
	C506.679810,114.985397 508.757233,114.366203 510.834839,114.035233 
	C511.381805,114.553787 511.928772,115.072327 512.737854,115.295441 
	C513.000000,123.354233 513.000000,131.708466 512.532043,140.503555 
	C421.217010,140.932968 330.369965,140.921509 239.522888,140.910049 
z"/>
<path fill="#F5F3F3" opacity="1.000000" stroke="none" 
	d="
M513.000000,243.531342 
	C422.124237,244.006256 331.248474,244.012512 239.943970,244.018768 
	C239.457809,235.718262 239.400406,227.417709 239.863617,218.664246 
	C329.096619,218.203537 417.809021,218.197083 506.521393,218.180161 
	C508.680939,218.179749 510.840454,218.062668 513.000000,218.000000 
	C513.000000,226.354233 513.000000,234.708466 513.000000,243.531342 
z"/>
<path fill="#FF4E58" opacity="1.000000" stroke="none" 
	d="
M513.000000,217.531357 
	C510.840454,218.062668 508.680939,218.179749 506.521393,218.180161 
	C417.809021,218.197083 329.096619,218.203537 239.955902,218.219986 
	C239.448608,209.890823 239.369690,201.553009 239.810867,192.769791 
	C329.903778,192.337021 419.476562,192.351181 509.049377,192.347198 
	C510.366241,192.347137 511.683136,192.120758 513.000000,192.000000 
	C513.000000,200.354233 513.000000,208.708466 513.000000,217.531357 
z"/>
<path fill="#FF4D57" opacity="1.000000" stroke="none" 
	d="
M239.408020,141.370346 
	C330.369965,140.921509 421.217010,140.932968 512.532043,140.972198 
	C513.000000,149.354233 513.000000,157.708466 512.536499,166.454681 
	C421.214203,166.838943 330.355408,166.831223 239.496628,166.823502 
	C239.428802,158.492554 239.360962,150.161591 239.408020,141.370346 
z"/>
<path fill="#F5F5F5" opacity="1.000000" stroke="none" 
	d="
M239.403091,167.301804 
	C330.355408,166.831223 421.214203,166.838943 512.536499,166.923340 
	C513.000000,175.020905 513.000000,183.041809 513.000000,191.531357 
	C511.683136,192.120758 510.366241,192.347137 509.049377,192.347198 
	C419.476562,192.351181 329.903778,192.337021 239.899567,192.332718 
	C239.415298,184.154053 239.362427,175.967087 239.403091,167.301804 
z"/>
<path fill="#FF4B55" opacity="1.000000" stroke="none" 
	d="
M510.811279,113.684067 
	C508.757233,114.366203 506.679810,114.985397 504.601990,114.986649 
	C416.527679,115.039757 328.453369,115.037766 239.950348,115.040619 
	C239.417389,109.929153 239.759354,104.756241 239.045731,99.733292 
	C238.599487,96.592285 236.562927,93.677223 235.514847,90.346909 
	C244.451920,90.021599 253.114120,90.001106 261.776337,90.000137 
	C335.239136,89.991943 408.701904,89.987297 482.164703,89.981583 
	C487.564392,92.385033 494.042053,92.537163 498.149323,97.640068 
	C502.360596,102.872223 506.574799,108.102066 510.811279,113.684067 
z"/>
<path fill="#FD7077" opacity="1.000000" stroke="none" 
	d="
M481.930664,89.601578 
	C408.701904,89.987297 335.239136,89.991943 261.776337,90.000137 
	C253.114120,90.001106 244.451920,90.021599 235.308411,90.058426 
	C234.453018,90.042465 234.078903,90.001114 233.376648,89.748199 
	C233.048477,89.536652 233.006729,89.155746 233.006729,89.155746 
	C234.336090,89.104095 235.665451,89.007446 236.994827,89.007202 
	C317.572693,88.992371 398.150543,88.984596 478.728394,88.987930 
	C479.717804,88.987968 480.707245,89.140320 481.930664,89.601578 
z"/>
<path fill="#725192" opacity="1.000000" stroke="none" 
	d="
M232.545227,89.080643 
	C233.006729,89.155746 233.048477,89.536652 233.094940,89.722389 
	C167.962112,89.941719 102.782822,89.976242 37.603531,89.995636 
	C36.953056,89.995834 36.302521,89.795990 35.340141,89.418648 
	C42.508286,89.098778 49.988300,89.008690 57.468327,89.007370 
	C115.673462,88.997124 173.878586,89.003967 232.545227,89.080643 
z"/>
<path fill="#FF4B55" opacity="1.000000" stroke="none" 
	d="
M3.015776,399.613098 
	C5.043995,399.155823 7.036037,398.983032 9.028092,398.982880 
	C174.109329,398.970428 339.190582,398.969360 504.271820,398.996460 
	C506.216461,398.996796 508.161072,399.373901 510.470398,399.769165 
	C508.143280,410.781372 494.802979,422.287689 482.082550,423.991882 
	C398.064545,423.983490 314.920593,423.992645 231.776642,424.000946 
	C165.128586,424.007599 98.480522,424.013245 31.832462,424.019348 
	C20.387411,424.132050 5.201370,409.496796 3.015776,399.613098 
z"/>
<path fill="#FD7077" opacity="1.000000" stroke="none" 
	d="
M32.061012,424.398163 
	C98.480522,424.013245 165.128586,424.007599 231.776642,424.000946 
	C314.920593,423.992645 398.064545,423.983490 481.687317,423.997620 
	C480.651917,424.351379 479.137817,424.971497 477.623566,424.971954 
	C330.335144,425.018097 183.046722,425.017700 35.758297,425.009155 
	C34.602047,425.009094 33.445808,424.857727 32.061012,424.398163 
z"/>
<path fill="#E8E9EF" opacity="1.000000" stroke="none" 
	d="
M93.285233,141.140945 
	C92.181221,141.663300 91.359184,141.997101 89.558220,142.728424 
	C92.307953,137.463196 91.441948,133.809708 86.377968,131.084900 
	C91.717979,131.078659 95.295387,129.595062 96.143028,123.771530 
	C98.120239,128.291992 99.778427,132.662506 106.603844,129.578262 
	C106.405296,130.202698 106.206741,130.827118 106.008194,131.451538 
	C104.385994,132.894257 102.763802,134.336960 101.135765,135.784866 
	C101.613037,137.883682 102.068695,139.887466 102.578590,142.129745 
	C99.181343,142.305222 96.940308,136.909592 93.285233,141.140945 
z"/>
<path fill="#E8E8EF" opacity="1.000000" stroke="none" 
	d="
M186.722168,142.216248 
	C186.425049,140.140045 186.425049,137.951004 186.425049,135.393494 
	C185.188232,134.322098 183.597321,132.943954 180.595795,130.343857 
	C186.995590,131.184006 190.546143,129.404388 191.492737,123.518082 
	C192.904739,128.753998 195.424698,131.688736 201.187210,131.449203 
	C199.575546,132.882034 197.963882,134.314850 196.250854,135.837799 
	C196.770630,137.814941 197.302246,139.837067 198.140976,143.027451 
	C195.377747,141.417206 193.500671,140.323380 191.477463,139.144379 
	C190.029449,140.105453 188.524353,141.104431 186.722168,142.216248 
z"/>
<path fill="#E8E9EF" opacity="1.000000" stroke="none" 
	d="
M221.441864,126.027809 
	C219.520020,125.878395 217.534714,125.377960 214.618134,124.642776 
	C213.656372,125.194298 211.730576,126.298645 209.804764,127.402992 
	C211.240631,122.502129 210.526566,118.765488 205.371689,116.109497 
	C210.532394,115.879509 214.350327,114.697945 215.090195,108.750374 
	C217.066284,113.289612 218.832184,117.532616 225.572784,114.594559 
	C225.387772,115.226875 225.202759,115.859200 225.017746,116.491516 
	C223.469254,117.801643 221.920776,119.111778 220.087616,120.662758 
	C220.494370,122.242752 220.936401,123.959770 221.441864,126.027809 
z"/>
<path fill="#E8E9EF" opacity="1.000000" stroke="none" 
	d="
M65.543716,115.281464 
	C69.427490,114.999702 69.427490,114.999702 72.856476,108.274727 
	C73.955009,113.724548 76.666466,116.585617 82.324547,115.271217 
	C82.288521,115.693314 82.252495,116.115410 82.216469,116.537506 
	C80.660324,117.850937 79.104179,119.164368 77.308884,120.679649 
	C77.800087,122.710876 78.318344,124.853973 79.121033,128.173233 
	C76.404411,126.475739 74.666603,125.389854 72.684715,124.151459 
	C70.887619,125.203552 68.986671,126.316444 66.182304,127.958229 
	C66.893311,124.874947 67.357140,122.863533 67.868904,120.644249 
	C66.634026,119.656219 65.257118,118.725975 64.163307,117.535606 
	C63.943027,117.295876 64.796707,116.069298 65.543716,115.281464 
z"/>
<path fill="#E8E9EF" opacity="1.000000" stroke="none" 
	d="
M97.606110,217.687088 
	C97.836197,223.746017 103.072739,221.469482 106.315872,223.200119 
	C104.423981,224.854034 102.853134,226.227295 101.094681,227.764572 
	C101.592415,229.676208 102.114082,231.679749 103.023827,235.173813 
	C100.169266,233.406937 98.467636,232.353683 96.501389,231.136658 
	C94.692635,232.176849 92.773064,233.280792 90.853493,234.384720 
	C92.241936,229.499268 91.613831,225.741135 86.403183,223.082489 
	C91.419075,222.941971 94.957649,221.665787 95.665833,216.696808 
	C96.257538,216.911713 96.849243,217.126617 97.606110,217.687088 
z"/>
<path fill="#EAEAEF" opacity="1.000000" stroke="none" 
	d="
M215.756393,201.434906 
	C216.885818,206.559601 219.998993,208.410034 224.969070,208.452896 
	C223.400024,209.822266 221.830978,211.191635 220.071167,212.727478 
	C220.557938,214.641708 221.070923,216.659088 221.955505,220.137756 
	C219.136475,218.369858 217.439911,217.305908 215.510406,216.095871 
	C213.666534,217.154800 211.735748,218.263657 209.804947,219.372513 
	C211.198212,214.498627 210.647400,210.713486 205.248123,207.856476 
	C211.452621,208.858475 213.554398,205.160034 215.756393,201.434906 
z"/>
<path fill="#E8E8EF" opacity="1.000000" stroke="none" 
	d="
M168.901093,110.457108 
	C169.242722,116.153961 173.685394,115.198166 177.662781,116.070190 
	C172.967361,118.833405 171.674606,122.371384 173.310913,127.394760 
	C171.551636,126.386299 169.792343,125.377846 167.806427,124.239471 
	C166.110214,125.205704 164.299957,126.236885 161.258224,127.969574 
	C163.436020,122.577606 163.158798,118.667404 157.125290,116.471428 
	C159.091309,115.826958 159.955017,115.253632 160.753632,115.333267 
	C163.888748,115.645836 165.791306,114.606705 166.392258,111.308426 
	C166.489151,110.776649 167.948959,110.493217 168.901093,110.457108 
z"/>
<path fill="#E6E6ED" opacity="1.000000" stroke="none" 
	d="
M53.191902,130.264801 
	C55.027973,130.411819 56.455132,130.525864 59.750801,130.789200 
	C54.412132,133.914566 52.411503,137.242386 54.374519,142.426193 
	C52.648781,141.429474 50.923038,140.432770 48.903641,139.266449 
	C47.229179,140.200439 45.409954,141.215195 42.135567,143.041611 
	C44.647625,137.470795 43.843338,133.640488 38.680691,131.023346 
	C44.006538,130.983612 47.916382,129.898270 47.976482,123.107368 
	C50.073826,126.216156 51.428406,128.223999 53.191902,130.264801 
z"/>
<path fill="#E8E8EE" opacity="1.000000" stroke="none" 
	d="
M50.449642,232.094269 
	C47.875816,232.477448 45.663960,233.079865 42.671444,233.894913 
	C44.551739,229.486725 43.930363,225.587967 38.676678,223.006744 
	C43.866909,222.817230 47.979366,222.013779 48.545292,215.550583 
	C50.040661,220.797379 52.814232,223.557938 58.724651,222.821579 
	C54.059090,225.835571 52.660835,229.339844 54.333511,234.376984 
	C53.159546,233.689163 51.985580,233.001343 50.449642,232.094269 
z"/>
<path fill="#E8E8EE" opacity="1.000000" stroke="none" 
	d="
M21.155870,126.614151 
	C20.217018,126.611076 19.596756,126.379761 18.976494,126.148453 
	C21.230103,121.791801 19.144943,118.814445 14.305819,115.867020 
	C20.012440,115.505089 24.449759,115.107544 24.624783,108.569435 
	C26.537817,113.467453 28.859762,116.672089 34.708935,115.836479 
	C30.735323,118.930504 28.401529,122.140022 30.448299,127.403015 
	C28.737764,126.368408 27.027229,125.333809 25.060316,124.144135 
	C23.941759,124.843422 22.708111,125.614670 21.155870,126.614151 
z"/>
<path fill="#E8E9EF" opacity="1.000000" stroke="none" 
	d="
M191.195404,216.425903 
	C193.557159,219.753860 194.933167,224.242554 201.287308,221.940552 
	C201.227386,222.411575 201.167480,222.882584 201.107574,223.353607 
	C199.523239,224.820618 197.938889,226.287628 196.260269,227.841934 
	C196.773666,229.805908 197.301712,231.825974 198.120651,234.958725 
	C195.369781,233.374954 193.482529,232.288406 191.540756,231.170441 
	C189.746704,232.228989 187.955139,233.286057 186.163559,234.343140 
	C187.924255,229.301895 186.420990,225.761826 181.552780,223.022217 
	C186.642548,222.972870 190.155838,221.663864 191.195404,216.425903 
z"/>
<path fill="#E8E8EE" opacity="1.000000" stroke="none" 
	d="
M121.567383,124.939484 
	C118.989838,125.501350 116.779282,126.275215 113.567741,127.399506 
	C115.987106,122.626999 115.517303,118.770927 110.264481,116.242180 
	C115.072327,115.454079 119.744194,115.346382 119.865005,108.440399 
	C121.392609,114.144211 124.643265,116.318420 130.221420,115.889702 
	C125.491646,118.736877 123.956039,122.189117 127.066643,128.186462 
	C124.329460,126.567825 123.131912,125.859657 121.567383,124.939484 
z"/>
<path fill="#EAEAEF" opacity="1.000000" stroke="none" 
	d="
M166.594604,216.748337 
	C165.043793,217.715500 163.805466,218.470657 160.916840,220.232178 
	C163.562027,214.487366 163.105011,210.657852 157.766052,208.123550 
	C162.750565,207.695541 167.041183,206.857224 167.559280,200.466003 
	C169.294083,205.304169 171.278137,208.972870 177.440506,207.523895 
	C173.919083,210.925613 170.936050,213.989288 174.929306,219.575455 
	C171.365570,218.225357 169.136337,217.380844 166.594604,216.748337 
z"/>
<path fill="#E8E8EE" opacity="1.000000" stroke="none" 
	d="
M138.976013,137.037903 
	C137.650650,134.923492 136.259918,133.202438 134.233017,130.694122 
	C139.324570,131.035294 142.918030,129.343979 143.883316,123.732666 
	C145.293320,128.998413 148.191177,131.421951 153.842499,131.016861 
	C149.217682,133.896317 147.592636,137.336807 149.463287,142.380386 
	C147.683044,141.360016 145.902817,140.339645 143.968750,139.231094 
	C142.247803,140.237442 140.449875,141.288818 137.523392,143.000137 
	C138.173111,140.391953 138.541870,138.911606 138.976013,137.037903 
z"/>
<path fill="#E8E8EE" opacity="1.000000" stroke="none" 
	d="
M145.328110,231.857361 
	C142.830383,232.415085 140.644608,233.183075 137.432281,234.311752 
	C139.906799,229.480560 139.188431,225.732742 133.978546,223.057449 
	C139.267242,222.959473 143.060135,221.691193 143.666641,215.698288 
	C145.729416,220.246689 147.524368,224.411331 154.133240,222.587723 
	C149.296051,225.871353 147.879074,229.235626 149.455719,234.344864 
	C148.183838,233.585785 146.911957,232.826706 145.328110,231.857361 
z"/>
<path fill="#E8E8EF" opacity="1.000000" stroke="none" 
	d="
M81.799782,208.541061 
	C80.342598,210.081970 78.958313,211.253250 77.301010,212.655518 
	C77.771523,214.526459 78.277199,216.537216 79.097809,219.800278 
	C76.440765,218.316910 74.591690,217.284607 72.532089,216.134781 
	C70.869934,217.154251 69.100296,218.239655 66.250374,219.987640 
	C66.907066,216.854080 67.341957,214.778900 67.798225,212.601730 
	C66.225624,211.244095 64.633881,209.869934 61.989803,207.587296 
	C67.613914,207.602692 72.183861,207.168304 72.442848,200.080170 
	C73.120865,206.875092 77.683281,207.273270 81.799782,208.541061 
z"/>
<path fill="#ECECF0" opacity="1.000000" stroke="none" 
	d="
M190.739227,186.270721 
	C191.343048,185.992554 192.073486,185.915253 192.098358,186.014572 
	C193.224838,190.514191 195.836029,192.986588 201.286301,192.278732 
	C196.930649,195.277390 195.328552,198.708649 197.286469,203.794434 
	C195.401581,202.734375 193.516693,201.674316 191.502548,200.541565 
	C189.741089,201.623215 187.948318,202.724075 186.155548,203.824951 
	C187.550659,198.995026 186.653061,195.217194 181.776596,192.508926 
	C186.255402,192.187881 190.168503,191.780121 190.739227,186.270721 
z"/>
<path fill="#E8E9EF" opacity="1.000000" stroke="none" 
	d="
M22.926346,205.184631 
	C23.524008,203.613663 24.019342,202.430893 24.972658,200.154541 
	C26.817650,205.124222 28.438030,209.525696 33.438995,207.435730 
	C32.059776,211.339661 30.851015,214.761108 29.449003,218.729568 
	C28.783834,218.333649 27.089722,217.325287 25.113035,216.148727 
	C23.372726,217.140686 21.452261,218.235321 19.531796,219.329956 
	C21.256588,214.346298 19.906137,210.809952 15.098179,208.529816 
	C18.240015,207.327316 20.532017,206.450089 22.926346,205.184631 
z"/>
<path fill="#E8E8EF" opacity="1.000000" stroke="none" 
	d="
M126.037750,217.085510 
	C125.529518,217.911789 124.710258,218.843735 124.421844,218.701233 
	C122.967026,217.982498 121.650513,216.983780 120.276665,216.077499 
	C118.344376,217.229004 116.547249,218.299957 114.750122,219.370926 
	C116.022911,214.547760 115.528061,210.730072 110.154327,208.030029 
	C115.424896,207.939667 119.236420,206.742874 119.786842,200.799973 
	C122.051331,205.031281 123.530632,209.720764 130.502533,206.434998 
	C128.423706,210.948303 122.759369,212.062637 126.037750,217.085510 
z"/>
<path fill="#ECECF0" opacity="1.000000" stroke="none" 
	d="
M29.291275,145.980530 
	C31.158279,146.002151 32.626221,146.002151 34.094166,146.002151 
	C34.557289,146.574844 35.020416,147.147537 35.483543,147.720230 
	C33.671539,148.935410 31.089371,149.780579 30.275215,151.475174 
	C29.536596,153.012527 30.723528,155.474991 31.335217,159.193253 
	C27.018194,154.883743 23.289978,154.111465 19.133976,158.278732 
	C20.531778,153.385101 20.463125,149.300537 15.001790,146.848816 
	C19.927080,146.345520 24.268393,145.949554 24.065174,138.699753 
	C26.235565,141.963699 27.563890,143.961288 29.291275,145.980530 
z"/>
<path fill="#ECEDF1" opacity="1.000000" stroke="none" 
	d="
M211.569885,145.927612 
	C213.011002,143.917236 214.052490,141.967621 215.486740,139.282776 
	C217.135223,144.032883 218.788239,148.201859 225.161392,145.413925 
	C225.120911,145.914139 225.080429,146.414368 225.039948,146.914597 
	C223.455032,148.364380 221.870117,149.814163 220.042206,151.486237 
	C220.540283,153.359070 221.076736,155.376129 222.108994,159.257492 
	C217.406830,155.199677 213.514496,153.869461 209.282196,158.478699 
	C211.093613,153.361572 210.874634,149.384583 205.049286,147.271835 
	C205.392853,146.918121 205.736420,146.564392 206.079987,146.210678 
	C207.776749,146.136566 209.473511,146.062454 211.569885,145.927612 
z"/>
<path fill="#ECECF0" opacity="1.000000" stroke="none" 
	d="
M102.513397,171.914597 
	C102.305008,172.466553 101.903198,172.887070 101.840553,172.841492 
	C98.087242,170.110413 94.351578,169.382477 90.152260,173.489822 
	C91.888496,168.459290 92.210487,164.419937 86.307159,161.819977 
	C91.706688,161.818649 95.351654,160.245880 96.271233,154.293762 
	C97.709251,159.693466 100.290817,162.502792 106.075157,161.969574 
	C104.480057,163.419815 102.884956,164.870056 101.071327,166.518982 
	C101.517097,168.117981 101.997673,169.841812 102.513397,171.914597 
z"/>
<path fill="#EBEBF0" opacity="1.000000" stroke="none" 
	d="
M149.736557,170.226562 
	C149.860977,171.343567 149.860977,172.087112 149.860977,173.004776 
	C144.331757,170.354309 144.331757,170.354309 137.352951,173.109909 
	C139.970444,168.187393 139.194122,164.471985 133.934311,161.721313 
	C139.244507,161.801270 142.965149,160.365921 144.306595,154.994965 
	C145.168457,156.838684 145.573761,159.327560 147.017395,160.349136 
	C148.535904,161.423721 151.047729,161.094620 153.379623,161.413635 
	C152.793594,164.627686 146.635834,165.331497 149.736557,170.226562 
z"/>
<path fill="#ECECF0" opacity="1.000000" stroke="none" 
	d="
M221.334091,248.186264 
	C220.968857,248.934448 220.091400,249.713760 220.083878,249.705444 
	C216.577850,245.833023 213.164520,247.339554 209.157516,250.247269 
	C211.233261,245.289413 210.686462,241.416107 205.403870,238.744690 
	C210.759995,238.771805 214.212250,237.202957 215.188614,231.482147 
	C216.976562,236.233276 218.953140,240.137650 225.472382,237.334763 
	C225.315735,237.903534 225.159088,238.472305 225.002457,239.041061 
	C223.457535,240.387650 221.912598,241.734238 220.093430,243.319870 
	C220.445923,244.726868 220.837067,246.288177 221.334091,248.186264 
z"/>
<path fill="#ECECF0" opacity="1.000000" stroke="none" 
	d="
M25.728855,247.136444 
	C23.390272,247.979950 21.401321,248.964981 18.059826,250.619858 
	C21.028749,245.140152 20.172512,241.446503 15.097613,238.829025 
	C19.919424,238.226410 24.595064,238.114822 24.654629,231.217514 
	C26.505701,236.504211 28.992128,239.445496 34.874626,238.304337 
	C30.895720,241.538223 28.267326,244.831375 31.768326,250.011642 
	C31.306625,250.071945 30.844925,250.132248 30.383224,250.192566 
	C28.948313,249.221039 27.513399,248.249512 25.728855,247.136444 
z"/>
<path fill="#ECECF1" opacity="1.000000" stroke="none" 
	d="
M68.616135,145.969543 
	C70.124580,144.003525 71.229614,142.066711 72.883766,139.167450 
	C74.230217,143.994675 76.023636,147.961060 82.328659,146.090286 
	C78.928856,149.596756 75.690201,152.717773 78.957344,158.138092 
	C74.649803,155.196671 70.763062,153.930481 67.054832,158.702271 
	C66.788803,158.354614 66.522774,158.006973 66.256744,157.659317 
	C66.786636,155.726379 67.316521,153.793427 67.938637,151.524063 
	C66.392044,150.149445 64.727989,148.670425 62.070522,146.308441 
	C64.854256,146.168091 66.533485,146.083420 68.616135,145.969543 
z"/>
<path fill="#ECEDF1" opacity="1.000000" stroke="none" 
	d="
M166.470856,141.593597 
	C167.338699,141.096725 168.037323,140.950470 168.735947,140.804199 
	C169.112717,145.942719 172.675888,146.504059 178.060471,145.977982 
	C175.738754,148.375061 173.540237,149.690842 172.957138,151.521255 
	C172.398743,153.274139 173.518234,155.561539 174.059113,158.467270 
	C171.652893,157.081696 169.904053,155.293640 168.128769,155.266983 
	C166.266800,155.238998 164.379471,156.900360 161.381210,158.375397 
	C163.206238,153.366104 163.266708,149.218124 157.048111,147.177216 
	C160.985947,145.165543 166.252075,147.699127 166.470856,141.593597 
z"/>
<path fill="#ECEDF1" opacity="1.000000" stroke="none" 
	d="
M66.995544,238.002884 
	C69.166687,236.214523 70.935417,234.432434 73.014595,232.337540 
	C73.723831,233.805283 74.189011,236.341278 75.700195,237.444580 
	C77.156784,238.508041 79.693680,238.091827 83.440605,238.516724 
	C78.057083,241.566818 75.962807,244.991547 78.950562,250.438385 
	C74.542297,246.405273 70.657967,246.543732 66.342491,249.535889 
	C66.856461,247.530258 67.370430,245.524643 67.937660,243.311203 
	C66.326508,241.969849 64.705635,240.620407 62.286476,238.606354 
	C64.298302,238.327377 65.445717,238.168259 66.995544,238.002884 
z"/>
<path fill="#EDEDF1" opacity="1.000000" stroke="none" 
	d="
M115.678162,237.968216 
	C117.414276,236.041214 118.733917,234.133179 120.403961,231.718506 
	C121.861847,236.042557 123.813164,239.830475 129.979431,238.150803 
	C126.412956,241.528259 123.110802,244.610062 126.417267,250.136780 
	C122.070557,246.640488 118.330406,246.326187 114.156769,250.297928 
	C115.874977,245.370010 115.510559,241.407898 111.077248,238.328308 
	C112.472061,238.214600 113.866875,238.100891 115.678162,237.968216 
z"/>
<path fill="#ECECF1" opacity="1.000000" stroke="none" 
	d="
M215.198181,170.700806 
	C217.245697,174.500549 218.780731,178.729156 225.338089,176.969345 
	C221.047577,180.182144 218.648682,183.507828 221.727341,188.840179 
	C217.278290,186.052795 213.363815,183.997391 209.406693,189.488358 
	C210.138214,184.467896 211.974106,179.951492 205.196838,177.561111 
	C211.017807,177.879013 213.818970,175.448135 215.198181,170.700806 
z"/>
<path fill="#ECECF1" opacity="1.000000" stroke="none" 
	d="
M73.350601,171.174713 
	C74.054207,176.398895 77.314224,177.473053 82.328964,177.225464 
	C77.976830,180.208633 76.304237,183.768234 78.252426,188.800125 
	C76.475044,187.771698 74.697662,186.743256 72.575783,185.515488 
	C70.843857,186.545410 68.942238,187.676254 67.040619,188.807083 
	C68.726204,183.868607 67.556038,180.177612 62.571941,177.019653 
	C69.511269,179.561096 70.081039,173.393051 73.350601,171.174713 
z"/>
<path fill="#ECEDF1" opacity="1.000000" stroke="none" 
	d="
M103.253738,195.218887 
	C102.490692,198.040344 102.024071,200.640396 101.467552,203.741394 
	C98.288231,200.208649 94.407501,200.236649 90.255363,204.164215 
	C91.756523,199.280045 92.109512,195.225159 86.665840,192.599197 
	C91.740784,192.491776 95.274673,190.951218 96.200523,185.245071 
	C97.896774,190.131699 100.395607,193.277710 105.912910,192.774292 
	C105.125328,193.515350 104.337738,194.256424 103.253738,195.218887 
z"/>
<path fill="#ECECF1" opacity="1.000000" stroke="none" 
	d="
M54.751537,172.493240 
	C50.813263,170.963486 47.050934,168.526154 42.806995,173.526917 
	C44.666981,168.236954 44.183346,164.387527 38.679943,161.775314 
	C43.969551,161.723770 47.893829,160.502274 48.595184,154.393753 
	C50.244041,159.433151 52.739479,162.355591 58.397072,161.499603 
	C54.508709,164.534256 52.645206,167.765091 54.751537,172.493240 
z"/>
<path fill="#EDEDF1" opacity="1.000000" stroke="none" 
	d="
M116.830841,156.931595 
	C115.820015,157.405441 115.133331,157.682220 113.383141,158.387665 
	C116.173317,153.182663 115.250641,149.534409 110.468506,146.691086 
	C115.665459,146.810699 119.062485,145.188675 120.042969,139.466949 
	C121.592720,144.553268 124.259689,147.443420 130.214294,146.386612 
	C125.571777,149.476151 123.799805,152.999115 126.710640,157.999939 
	C122.865204,157.519302 120.545372,152.621155 116.830841,156.931595 
z"/>
<path fill="#EDEDF1" opacity="1.000000" stroke="none" 
	d="
M173.751877,247.948425 
	C173.462967,248.817612 173.061493,249.309479 172.660019,249.801361 
	C169.243988,246.296021 165.807541,246.836472 161.877579,250.170654 
	C163.017700,245.396347 163.871994,240.973572 157.516296,238.719986 
	C163.234192,238.903137 166.658020,237.101089 167.682846,231.382233 
	C169.119843,236.675598 171.893707,239.155914 177.661591,238.015839 
	C175.518738,241.556091 170.485840,243.098526 173.751877,247.948425 
z"/>
<path fill="#ECECF1" opacity="1.000000" stroke="none" 
	d="
M196.996719,161.033585 
	C198.504318,161.123154 199.607574,161.201233 202.067276,161.375320 
	C199.664505,163.469360 198.139816,164.798157 196.311996,166.391113 
	C196.752853,168.297638 197.251205,170.452835 198.153793,174.356155 
	C193.523285,170.206451 189.627396,168.317505 185.823395,174.529984 
	C185.656143,173.915955 185.488907,173.301910 185.321655,172.687881 
	C185.817612,170.683426 186.313568,168.678986 186.864517,166.452301 
	C185.299973,165.060120 183.648163,163.590302 180.915329,161.158554 
	C186.921143,161.779037 190.502060,160.367172 190.858505,154.830627 
	C193.025726,157.170807 194.809052,159.096451 196.996719,161.033585 
z"/>
<path fill="#ECECF0" opacity="1.000000" stroke="none" 
	d="
M125.926483,188.192078 
	C121.946083,185.993286 118.167213,184.714172 114.230980,189.234802 
	C114.929268,184.493439 116.792274,179.973083 110.179054,177.661942 
	C115.748917,177.657898 118.938454,175.692719 119.736839,169.127808 
	C122.145073,174.445374 123.484863,179.152451 130.144806,176.799652 
	C126.064644,180.078003 123.971024,183.342545 125.926483,188.192078 
z"/>
<path fill="#ECECF1" opacity="1.000000" stroke="none" 
	d="
M162.123337,181.097351 
	C160.606934,179.844376 159.392609,178.817001 157.133011,176.905243 
	C163.128754,177.481079 166.919693,176.321640 167.443970,169.976898 
	C169.454010,174.655563 171.242706,178.663437 177.645752,177.072510 
	C172.987396,180.190384 171.421494,183.671951 174.122620,188.858704 
	C169.834671,185.896790 165.967102,184.534409 161.936661,189.766129 
	C162.152237,186.041962 162.288818,183.682465 162.123337,181.097351 
z"/>
<path fill="#ECEDF1" opacity="1.000000" stroke="none" 
	d="
M143.996979,200.756439 
	C141.920227,201.751450 140.229645,202.756256 137.312820,204.489914 
	C139.401245,199.236847 139.907974,195.066254 133.987808,192.769608 
	C138.782318,191.890854 143.817963,192.051468 143.368134,184.802933 
	C145.784485,189.365356 147.199158,193.814713 153.729095,192.055298 
	C149.520615,195.314392 147.301605,198.622620 149.571274,203.773300 
	C147.841904,202.770950 146.112534,201.768616 143.996979,200.756439 
z"/>
<path fill="#ECEDF1" opacity="1.000000" stroke="none" 
	d="
M50.342232,201.302139 
	C47.782806,201.802444 45.551224,202.504395 42.698196,203.401810 
	C43.825451,199.258102 45.228317,194.636536 38.466545,192.595337 
	C44.154675,192.528870 47.830418,191.200912 48.548489,185.103348 
	C50.473152,189.676025 52.292217,193.642838 58.642967,192.102280 
	C54.092049,195.232910 52.374966,198.668915 54.435585,203.878098 
	C53.180416,203.086655 51.925243,202.295212 50.342232,201.302139 
z"/>
<path fill="#ECECF1" opacity="1.000000" stroke="none" 
	d="
M31.117958,176.805496 
	C32.335476,176.898148 33.140232,176.988846 35.432217,177.247177 
	C30.767698,180.292404 28.156330,183.488937 31.358341,188.826538 
	C26.935114,185.572556 23.059963,184.850037 20.330097,188.188812 
	C19.212521,184.499878 18.112886,180.870178 17.004250,177.210754 
	C21.206673,178.137436 23.577991,175.085510 24.393169,171.026657 
	C26.608910,173.054550 28.657053,174.929047 31.117958,176.805496 
z"/>
</svg>